<svg xmlns="http://www.w3.org/2000/svg" width="600" height="600" viewBox="0 0 600 600">
  <g id="Grupo_1" data-name="Grupo 1" transform="translate(-730 -93.325)">
    <path id="Trazado_1" data-name="Trazado 1" d="M818.034,394.716V628.842l74.171-94.551h131.33Z" transform="translate(141.966 -118.192)" fill="none" stroke="#35e3e3" stroke-linejoin="round" stroke-width="20"/>
    <g id="Trazado_2" data-name="Trazado 2" transform="translate(830 196)" fill="none">
      <path d="M200-.675c110.457,0,200,89.944,200,200.137S310.457,399.325,200,399.325,0,309.655,0,199.462,89.543-.675,200-.675Z" stroke="none"/>
      <path d="M 200 19.3251953125 C 100.7476501464844 19.3251953125 20 100.1341247558594 20 199.4617614746094 C 20 298.6387634277344 100.7476501464844 379.3251953125 200 379.3251953125 C 299.2523498535156 379.3251953125 380 298.6387634277344 380 199.4617614746094 C 380 100.1341247558594 299.2523498535156 19.3251953125 200 19.3251953125 M 200 -0.6748046875 C 310.4569396972656 -0.6748046875 400 89.2689208984375 400 199.4617614746094 C 400 309.654541015625 310.4569396972656 399.3251953125 200 399.3251953125 C 89.54306030273438 399.3251953125 0 309.654541015625 0 199.4617614746094 C 0 89.2689208984375 89.54306030273438 -0.6748046875 200 -0.6748046875 Z" stroke="none" fill="#35e3e3"/>
    </g>
    <g id="Trazado_3" data-name="Trazado 3" transform="translate(780 146)" fill="none">
      <path d="M250-.675c138.071,0,250,112.43,250,250.171S388.071,499.325,250,499.325,0,387.237,0,249.5,111.929-.675,250-.675Z" stroke="none"/>
      <path d="M 250 19.3251953125 C 123.1775817871094 19.3251953125 20 122.579345703125 20 249.495849609375 C 20 376.2241821289063 123.1775817871094 479.3251953125 250 479.3251953125 C 376.8224182128906 479.3251953125 480 376.2241821289063 480 249.495849609375 C 480 122.579345703125 376.8224182128906 19.3251953125 250 19.3251953125 M 250 -0.6748046875 C 388.0711669921875 -0.6748046875 500 111.7548522949219 500 249.495849609375 C 500 387.2368469238281 388.0711669921875 499.3251953125 250 499.3251953125 C 111.9288330078125 499.3251953125 0 387.2368469238281 0 249.495849609375 C 0 111.7548522949219 111.9288330078125 -0.6748046875 250 -0.6748046875 Z" stroke="none" fill="#35e3e3"/>
    </g>
    <g id="Trazado_4" data-name="Trazado 4" transform="translate(730 94)" fill="none">
      <path d="M300-.675c165.685,0,300,134.916,300,300.2s-134.315,299.8-300,299.8S0,464.819,0,299.53,134.315-.675,300-.675Z" stroke="none"/>
      <path d="M 300 19.32513427734375 C 145.6075134277344 19.32513427734375 20 145.0245666503906 20 299.5300598144531 C 20 453.8095703125 145.6075134277344 579.3251953125 300 579.3251953125 C 454.3925170898438 579.3251953125 580 453.8095703125 580 299.5300598144531 C 580 145.0245666503906 454.3925170898438 19.32513427734375 300 19.32513427734375 M 300 -0.67486572265625 C 465.6853942871094 -0.67486572265625 600 134.2407531738281 600 299.5300598144531 C 600 464.8192749023438 465.6853942871094 599.3251953125 300 599.3251953125 C 134.3146057128906 599.3251953125 0 464.8192749023438 0 299.5300598144531 C 0 134.2407531738281 134.3146057128906 -0.67486572265625 300 -0.67486572265625 Z" stroke="none" fill="#35e3e3"/>
    </g>
  </g>
</svg>
